<svg height="512pt" viewBox="0 0 512.00084 512" width="512pt" xmlns="http://www.w3.org/2000/svg"><path d="m10.207031 327.75c-6.722656-23.066406-10.300781-47.476562-10.207031-72.734375.535156-140.769531 115.765625-255.300781 256.535156-255.015625 141.140625.289062 255.464844 114.792969 255.464844 256 0 22.707031-2.945312 44.707031-8.460938 65.652344-1.089843 4.140625-4.863281 7.007812-9.144531 7.007812h-474.054687c-3.289063-.585937-6.671875-.910156-10.132813-.910156zm0 0" fill="#75ccd4"/><path d="m402.875 465.6875c-41.578125 29.175781-92.222656 46.3125-146.875 46.3125-74.675781 0-141.882812-31.972656-188.679688-82.976562-38.246093-41.683594-8.199218-109.023438 48.371094-109.023438h388.246094c-12.648438 49.136719-39.527344 92.558594-75.96875 125.625h-5.03125c-11.078125 0-20.0625 8.984375-20.0625 20.0625zm0 0" fill="#607882"/><path d="m489.980469 14.613281-.882813 10.101563c-.242187 2.75-2.664062 4.785156-5.417968 4.542968l-89.808594-7.859374-14.1875 162.203124c-.242188 2.75-2.667969 4.785157-5.417969 4.542969l-10.101563-.882812c-2.75-.242188-4.785156-2.664063-4.542968-5.417969l15.507812-177.277344c.242188-2.753906 2.667969-4.789062 5.417969-4.5468748l104.890625 9.1757808c2.75.242188 4.785156 2.667969 4.542969 5.417969zm0 0" fill="#fc5426"/><path d="m392.417969 38.046875-14.21875 162.5c-.273438 3.136719-3.042969 5.460937-6.179688 5.1875-3.140625-.277344-5.464843-3.042969-5.1875-6.183594l14.214844-162.5c.277344-3.140625 3.042969-5.460937 6.183594-5.1875 3.136719.277344 5.460937 3.042969 5.1875 6.183594zm92.316406-28.914063-90.109375-7.882812c-3.140625-.273438-5.90625 2.046875-6.183594 5.1875-.273437 3.140625 2.050782 5.90625 5.1875 6.179688l90.109375 7.886718c3.136719.273438 5.90625-2.050781 6.179688-5.1875.277343-3.140625-2.046875-5.90625-5.183594-6.183594zm0 0" fill="#fd7d43"/><path d="m473.332031 108.148438v6.851562c0 5.023438-3.707031 9.171875-8.53125 9.882812l-32.183593 235.066407h-126.664063l-32.183594-235.066407c-4.824219-.710937-8.53125-4.859374-8.53125-9.882812v-6.851562c0-5.523438 4.476563-10 10-10h188.097657c5.519531 0 9.996093 4.476562 9.996093 10zm0 0" fill="#ffdf8e"/><path d="m304.71875 125h160.066406l-32.167968 234.949219h-107.199219l-30.609375-223.589844c-.820313-6.007813 3.847656-11.359375 9.910156-11.359375zm161.902344-26.851562h-175.207032c-3.707031 0-6.710937 3.003906-6.710937 6.714843 0 3.707031 3.003906 6.710938 6.710937 6.710938h175.207032c3.707031 0 6.710937-3.003907 6.710937-6.710938 0-3.710937-3.003906-6.714843-6.710937-6.714843zm0 0" fill="#fff2b4"/><path d="m120.078125 182.988281-20.078125 87.011719h-28.894531l26.421875-114.496094c2.09375-9.074218 10.175781-15.503906 19.488281-15.503906h28.894531c-9.3125 0-17.390625 6.429688-19.484375 15.503906l-3.621093 15.6875c-1.777344 2.878906-2.820313 6.261719-2.820313 9.898438 0 .640625.035156 1.273437.09375 1.898437zm0 0" fill="#d63d24"/><path d="m252.472656 155.503906c-2.09375-9.074218-10.175781-15.503906-19.488281-15.503906h-95.96875c-9.3125 0-17.394531 6.429688-19.488281 15.503906l-26.421875 114.496094h187.789062zm-37.1875 44.496094h-75.285156c-9.515625 0-17.230469-7.714844-17.230469-17.230469s7.714844-17.230469 17.230469-17.230469h75.285156c9.519532 0 17.234375 7.714844 17.234375 17.230469s-7.714843 17.230469-17.234375 17.230469zm0 0" fill="#ee4424"/><path d="m340 230v190c0 5.523438-4.476562 10-10 10h-261.753906c-26.808594-28.914062-47.023438-64.019531-58.246094-102.945312v-97.054688c0-5.523438 4.476562-10 10-10h310c5.523438 0 10 4.476562 10 10zm0 0" fill="#fc9302"/><path d="m340 230v190c0 5.523438-4.476562 10-10 10h-261.753906c-13.640625-14.714844-25.574219-31.035156-35.488282-48.644531v-161.355469h297.242188c5.523438 0 10 4.476562 10 10zm0 0" fill="#fda800"/><path d="m255 320c0 44.183594-35.816406 80-80 80s-80-35.816406-80-80 35.816406-80 80-80 80 35.816406 80 80zm0 0" fill="#fdcb6b"/><path d="m255 391.578125c0 4.652344-3.769531 8.421875-8.421875 8.421875h-143.15625c-4.652344 0-8.421875-3.769531-8.421875-8.421875 0-4.648437 3.769531-8.421875 8.421875-8.421875h4.210937c0-33.28125 24.144532-60.910156 55.871094-66.371094-.722656-1.589844-1.132812-3.347656-1.132812-5.207031 0-6.976563 5.652344-12.632813 12.628906-12.632813 6.980469 0 12.632812 5.65625 12.632812 12.632813 0 1.859375-.410156 3.617187-1.132812 5.207031 31.726562 5.460938 55.871094 33.085938 55.871094 66.371094h4.210937c4.648438 0 8.417969 3.773438 8.417969 8.421875zm-108.421875-75.789063c3.492187 0 6.316406-2.828124 6.316406-6.316406 0-3.488281-2.824219-6.316406-6.316406-6.316406-5.222656 0-9.472656-4.25-9.472656-9.472656s4.25-9.472656 9.472656-9.472656h44.210937c12.191407 0 22.105469-9.917969 22.105469-22.105469 0-12.191407-9.914062-22.105469-22.105469-22.105469-3.488281 0-6.3125 2.828125-6.3125 6.316406 0 3.488282 2.824219 6.316406 6.3125 6.316406 5.226563 0 9.476563 4.25 9.476563 9.472657 0 5.222656-4.25 9.472656-9.476563 9.472656h-44.210937c-12.1875 0-22.101563 9.917969-22.101563 22.105469 0 12.191406 9.914063 22.105468 22.101563 22.105468zm0 0" fill="#ee4424"/><path d="m219.976562 377.648438c.285157 2.984374-2.050781 5.492187-4.976562 5.492187h-87.367188v.019531h-3.921874c-4.484376 0-8.398438 3.382813-8.691407 7.859375-.316406 4.90625 3.566407 8.984375 8.40625 8.984375h-20c-4.839843 0-8.722656-4.078125-8.40625-8.984375.292969-4.476562 4.207031-7.859375 8.691407-7.859375h3.921874c0-33.285156 24.144532-60.914062 55.871094-66.371094-1.03125-2.273437-1.429687-4.890624-.898437-7.652343.953125-4.945313 4.882812-8.914063 9.816406-9.925781 3.21875-.65625 6.238281-.042969 8.75 1.371093-3.578125 1.964844-6.003906 5.761719-6.003906 10.125 0 .28125.011719.554688.03125.828125.285156 4.007813-1.898438 7.722656-5.617188 9.238282-17.988281 7.335937-32.089843 22.21875-38.371093 40.71875-1.945313 5.726562 2.433593 11.648437 8.480468 11.648437h75.097656c2.609376 0 4.941407 1.910156 5.1875 4.507813zm0 0" fill="#d63d24"/><path d="m344 305c0 8.285156-6.714844 15-15 15-8.28125 0-15-6.714844-15-15s6.71875-15 15-15c8.285156 0 15 6.714844 15 15zm0 0" fill="#6d4336"/><path d="m449.929688 342.714844c1.292968 20.363281-14.84375 37.285156-34.929688 37.285156-6.085938 0-11.804688-1.554688-16.789062-4.285156-6.375 8.660156-16.632813 14.285156-28.210938 14.285156-11.574219 0-21.835938-5.625-28.207031-14.285156-4.984375 2.730468-10.707031 4.285156-16.792969 4.285156-20.085938 0-36.21875-16.921875-34.925781-37.285156 1.0625-16.714844 14.125-30.527344 30.761719-32.472656.121093-.011719.242187-.027344.363281-.039063 7.671875-.816406 14.402343-5.304687 18.125-12.0625 5.957031-10.816406 17.460937-18.140625 30.675781-18.140625 13.21875 0 24.722656 7.324219 30.675781 18.140625 3.722657 6.757813 10.453125 11.246094 18.128907 12.0625.121093.011719.238281.027344.359374.039063 16.636719 1.945312 29.703126 15.757812 30.765626 32.472656zm0 0" fill="#a96a51"/><path d="m311.582031 377.324219c-13.328125-5.539063-22.496093-19.066407-21.507812-34.609375 1.0625-16.710938 14.125-30.527344 30.761719-32.472656.121093-.011719.242187-.027344.363281-.039063 7.671875-.816406 14.402343-5.304687 18.125-12.0625 5.957031-10.816406 17.460937-18.140625 30.675781-18.140625 11.109375 0 20.992188 5.1875 27.40625 13.257812-4.132812-1.714843-8.65625-2.675781-13.40625-2.675781-13.214844 0-24.71875 7.328125-30.675781 18.140625-3.722657 6.761719-10.453125 11.246094-18.125 12.0625-.121094.015625-.242188.027344-.363281.042969-16.636719 1.941406-29.699219 15.757813-30.761719 32.472656-.578125 9.097657 2.328125 17.5 7.507812 24.023438zm0 0" fill="#925b44"/><path d="m434 315c0 8.285156-6.714844 15-15 15-8.28125 0-15-6.714844-15-15s6.71875-15 15-15c8.285156 0 15 6.714844 15 15zm-75 35c-8.28125 0-15 6.714844-15 15s6.71875 15 15 15c8.285156 0 15-6.714844 15-15s-6.714844-15-15-15zm0 0" fill="#6d4336"/><path d="m428.351562 445.289062c-8.175781 7.449219-16.839843 14.363282-25.929687 20.710938h-71.863281c-9.605469 0-17.855469-6.828125-19.648438-16.265625l-14.527344-76.472656c-.71875-3.769531 2.175782-7.261719 6.011719-7.261719h.148438c1.621093 0 3.179687.644531 4.328125 1.792969l3.058594 3.058593 1.207031-1.207031c2.335937-2.332031 5.503906-3.644531 8.804687-3.644531 3.300782 0 6.46875 1.3125 8.804688 3.644531l1.207031 1.207031 1.207031-1.207031c2.335938-2.332031 5.5-3.644531 8.804688-3.644531 3.304687 0 6.46875 1.3125 8.804687 3.644531l1.207031 1.207031 1.207032-1.207031c2.335937-2.332031 5.503906-3.644531 8.804687-3.644531s6.46875 1.3125 8.804688 3.644531l1.207031 1.207031 1.207031-1.207031c2.335938-2.332031 5.5-3.644531 8.804688-3.644531 3.300781 0 6.46875 1.3125 8.804687 3.644531l1.207032 1.207031 1.207031-1.207031c2.335937-2.332031 5.5-3.644531 8.804687-3.644531 3.300782 0 6.46875 1.3125 8.804688 3.644531l1.207031 1.207031 1.207031-1.207031c2.332032-2.332031 5.5-3.644531 8.804688-3.644531 3.300781 0 6.46875 1.3125 8.800781 3.644531l1.207031 1.207031 3.0625-3.058593c1.148438-1.148438 2.703125-1.792969 4.328125-1.792969 3.886719 0 6.789063 3.574219 5.992188 7.378906zm0 0" fill="#a7dde2"/><path d="m394 440c13.273438 0 25.878906-2.875 37.222656-8.035156l-2.78125 13.242187c-8.203125 7.476563-16.898437 14.421875-26.023437 20.792969h-71.789063c-9.605468 0-17.851562-6.828125-19.644531-16.265625l-14.53125-76.472656c-.714844-3.769531 2.175781-7.261719 6.015625-7.261719h.144531c1.042969 0 2.054688.269531 2.953125.761719 7.855469 41.695312 44.457032 73.238281 88.433594 73.238281zm0 0" fill="#75ccd4"/></svg>